<?xml version="1.0" encoding="UTF-8"?>
<svg id="logo" xmlns="http://www.w3.org/2000/svg" viewBox="0 0 11338.58 2271.22">
  <defs>
    <style>
      .cls-1 {
        fill: #231f20;
      }
    </style>
  </defs>
  <g>
    <path class="cls-1" d="M72.13,1278.91c-1.24-16.17-8.7-23.62-29.84-23.62H0v-187.76h383v268.58c50.99-17.39,103.22-28.58,154.19-28.58,143,0,267.36,90.77,267.36,338.22,0,274.82-165.39,385.49-399.16,385.49-118.12,0-242.49-22.39-333.26-44.76v-707.56ZM433.98,1546.26c-14.92,0-36.05,4.98-50.99,13.68v233.79c9.96,1.24,18.66,2.49,26.12,2.49,63.4,0,79.57-28.61,79.57-134.3,0-89.53-7.45-115.65-54.71-115.65Z"/>
    <path class="cls-1" d="M848.1,1671.86c0-254.93,160.41-364.34,374.28-364.34,244.97,0,324.57,143,324.57,320.82v96.99h-371.81c3.72,59.68,22.37,99.47,104.45,99.47,34.82,0,84.56-3.73,105.71-57.21h155.42v210.15c-101.96,37.31-227.55,53.48-310.87,53.48-235.02,0-381.75-116.88-381.75-359.36ZM1269.65,1563.68v-9.96c0-31.09-14.94-49.74-43.52-49.74-39.8,0-54.72,34.82-54.72,59.7h98.24Z"/>
    <path class="cls-1" d="M2090.4,2271.22h-323.31v-94.5l138.02-159.17h-118.12l-151.71-498.65c-2.47-7.47-8.71-8.7-17.41-8.7h-57.19v-187.78h438.95v187.78h-46.01l49.74,228.81h18.66l63.42-228.81h-48.5v-187.78h363.1v187.78h-49.74c-16.17,0-18.65,8.7-22.37,23.63l-237.51,737.38Z"/>
    <path class="cls-1" d="M2786.8,1307.52c240,0,375.54,131.8,375.54,361.85s-135.55,361.85-375.54,361.85-374.28-128.08-374.28-361.85,134.29-361.85,374.28-361.85ZM2788.04,1811.13c50.99,0,58.44-42.27,58.44-141.76s-7.45-141.77-58.44-141.77-58.44,42.29-58.44,141.77,7.45,141.76,58.44,141.76Z"/>
    <path class="cls-1" d="M3248.9,1541.29c0-21.14-4.98-31.09-29.86-31.09h-42.27v-187.78h360.61v50.99h6.22c53.48-41.03,131.81-65.89,207.66-65.89,114.4,0,212.64,52.22,212.64,217.61v279.78c0,14.94,6.21,22.39,22.37,23.63h49.74v187.76h-383v-440.21c0-28.58-8.7-39.78-34.82-39.78-14.92,0-41.03,11.2-58.44,23.62v268.61h52.23v187.76h-435.23v-187.76h42.27c24.88,0,29.86-9.96,29.86-31.09v-256.16Z"/>
    <path class="cls-1" d="M4470.41,1319.95v-64.66h-72.12v-187.76h382.98v736.15c0,17.4,9.96,24.86,29.86,24.86h42.27v187.76c-49.74,4.98-106.94,13.68-162.9,13.68-70.87,0-138.02-8.7-184.03-50.99-52.23,31.09-119.38,52.23-200.21,52.23-111.91,0-257.39-54.71-257.39-356.87,0-263.63,136.78-366.83,327.03-366.83,33.58,0,64.66,6.21,94.5,12.43ZM4470.41,1789.99v-257.41c-12.43-3.72-19.9-3.72-31.09-3.72-63.42,0-74.6,13.68-74.6,145.49,0,101.96,19.88,131.8,58.44,131.8,12.43,0,29.84-3.73,47.25-16.17Z"/>
  </g>
  <path class="cls-1" d="M11301.55,1751.85h-2.88c-35.99,103-97.86,191.15-142.48,181.08-44.6-8.63-40.29-129.63-24.46-259.14,61.87-489.28,187.08-641.88,187.08-641.88,0,0-129.53-152.56-221.63-23.05-46.04,64.76-80.57,211.52-103.61,369.83-8.63-4.32-17.27-8.64-24.46-10.08-161.18-47.5-309.39,83.46-348.26,293.56-6.94,38.59-9.97,75.51-9.47,109.92-39.5,94.29-108.8,170.01-153.1,160.62-44.62-10.07-35.97-126.63-4.32-259.03,47.48-201.47,28.78-312.27-33.09-329.54-73.4-17.27-194.29,58.99-293.58,227.37,28.79-174.13,60.45-198.59,60.45-198.59,0,0-89.22-99.29-185.64-34.53-74.75,49.83-82.98,198.49-82.76,434.66-36.47,93.84-91.69,169.02-134.5,159.66-43.16-8.63-46.04-129.51-23.02-259.03,31.65-168.37,87.78-282.06,87.78-282.06-59.01-60.43-139.6-64.75-192.83,15.83-15.84-18.7-35.99-31.65-59.01-38.85-159.74-47.5-309.39,83.47-348.26,293.57-6.24,34.68-9.31,68.01-9.51,99.39-38.32,99.92-107.1,193.84-151.64,184.1-43.16-8.63-34.53-156.85,66.2-423.07,46.04-122.33,38.85-141.04-184.2-122.33-133.84,10.07-185.64-51.8-185.64-51.8,0,0-5.76,0-10.07,4.32-34.55,47.48-23.04,125.19,28.78,171.25-11.59,71.5-32.92,155.55-60.93,227.31-.3.09-.6.52-.91.52h-1.44c-7.56,20-16.06,41.52-25.19,61.34-5.82,11.36-11.83,21.95-18.02,31.85,0,0,0,1.06.99,2.31-32.75,61.24-70.51,105.15-101.67,98.34-43.18-8.63,1.44-156.86,102.17-423.08,46.04-122.33,38.85-141.04-182.76-122.34-135.28,8.63-187.08-51.8-187.08-51.8,0,0-5.76,0-10.09,4.31-34.53,48.92-20.14,129.51,35.99,177.01-1.44,4.32-2.88,8.63-2.88,11.51-31.65,205.78-152.55,430.28-303.66,407.24-54.68-7.19-92.1-57.55-112.24-120.88,351.14-179.88,431.73-427.4,179.88-476.32-185.64-33.11-335.31,105.05-374.17,310.83-6.94,37.28-8.5,72.17-5.68,104.47-37.63,97.45-94.36,182.48-136.77,166.07-40.3-14.39-27.34-254.71-2.88-394.29,66.2-382.79,177.01-506.56,177.01-506.56,0,0-128.08-152.53-223.06-23.02-59,86.35-109.37,326.68-132.4,539.65-7.43,71.69-9.57,148.66-4.69,219.29-37.64,96.97-94.08,181.28-136.33,164.93-40.29-14.39-27.34-254.71-2.88-394.29,66.2-382.79,177.01-506.56,177.01-506.56,0,0-128.08-152.53-223.06-23.02-59,86.35-109.37,326.68-132.4,539.65-7.33,70.73-9.52,146.62-4.88,216.47-41.13,106.05-143.06,206.94-272.81,180.7-43.17-8.63-80.59-54.68-103.61-110.81,364.09-179.88,423.09-434.6,169.81-482.08-185.64-33.11-335.31,105.05-375.6,309.39-6.25,34.14-7.31,66.54-4.25,96.94-37.57,100.54-96.09,190.43-138.19,173.6-40.3-14.39-27.34-243.2-5.76-382.78,14.39-96.42,28.78-168.37,46.05-230.26,67.64,10.09,133.83,15.84,172.69-10.07,84.91-57.55,33.1-169.81,33.1-169.81-63.32,24.48-105.06,47.5-165.5,57.57,27.35-69.08,51.81-97.86,51.81-97.86,0,0-87.78-94.98-195.71,5.76-23.03,20.14-41.73,51.81-56.12,93.54l-18.71-1.44c-97.86-11.51-128.07,67.64-79.14,113.68,0,0,21.58-7.19,67.63-8.63-15.83,73.4-27.35,156.86-35.98,246.09-21.58,194.27,1.44,427.4,94.98,467.69,86.65,38.07,190.07-52.02,249.07-173.01,40.85,104.52,131.19,172.51,204.21,185.96,176.91,30.72,309.76-67.57,373.5-169.5,14.62,78.13,41.51,137.93,84.07,156.55,82.63,35.75,178.98-41.55,239.27-151.33,14.83,75.56,41.46,133.12,83.07,151.33,85.98,37.21,186.83-48.01,246.44-164.85,37.43,99.39,121.17,161.85,202.81,177.8,223.07,44.62,403.54-164.06,466.54-464.81v-2.88c17,2.88,37.14,4.32,58.72,1.44l11.38-1.44c-87.78,257.59-93.61,438.91,12.9,467.69,101.09,25.59,189.63-60.34,246.46-176.82,3.32-4.03,6.53-8.85,9.58-14.57,47.5-89.21,84.9-187.07,109.37-276.29,18.7,4.32,40.28,5.76,64.74,2.88l12.95-2.88c-89.21,257.59-58.99,438.91,50.37,467.69,96.23,24.67,190.34-54.32,250.61-164.41,22.49,92.07,77.47,149.61,152.31,144.27,103.61-7.19,156.86-110.81,187.08-195.71,4.32,109.37,33.09,184.2,105.05,202.91,88.72,22.46,167.79-33.08,224.24-124.21.08,14.29.15,28.83.22,43.62,0,48.94,5.76,69.08,5.76,69.08,105.05,40.29,146.79,0,181.32-270.54,87.78-211.54,143.91-267.67,171.25-260.47,28.78,5.76,40.29,57.57-5.76,228.82-51.81,194.26,8.63,318.02,107.93,330.97,81.77,10.98,181.14-58.78,242.8-165.38,23,90.12,77.55,146.2,151.47,140.92,102.17-7.19,156.86-110.81,185.64-195.71,5.76,109.37,34.53,184.2,106.49,202.91,112.24,28.78,211.54-70.29,264.79-208.43,18.7-46.05-4.32-64.89-30.22-55.89ZM6696.74,1640.58c25.9-99.29,86.34-244.65,145.34-227.38,50.37,14.4,24.46,253.28-143.91,371.27-10.08-48.91-11.52-99.29-1.44-143.89ZM7928.51,1639.14c27.34-99.29,87.78-243.21,145.34-227.38,50.37,14.4,14.39,228.82-153.99,343.94-2.88-38.85,0-80.59,8.64-116.56ZM9613.59,1536.96c-8.63,50.36-15.83,99.29-18.7,143.9-47.5,166.93-106.49,233.13-145.35,223.06-46.04-12.95-40.29-153.98-11.51-263.34,25.92-99.29,77.71-205.78,148.23-201.47,18.7,1.44,33.09,7.19,46.04,18.7-8.63,23.02-14.39,48.92-18.7,79.15ZM10963.37,1690.93c-47.5,159.73-106.49,223.06-143.91,212.99-46.04-12.95-38.85-153.98-10.07-263.34,25.91-99.29,77.71-205.78,148.23-201.47,10.07,1.44,18.7,2.88,27.34,5.76-11.51,86.35-18.7,169.81-21.58,246.07Z"/>
  <g>
    <polygon points="5051.75 1003.03 4937.73 1234.63 5532.76 1245.32 5636.42 1030.25 5651.53 2119.46 5957.96 2001.87 5974.58 1081.42 5639.01 1012.09 5051.75 1003.03"/>
    <polygon points="5995.96 1099.24 5995.96 1241.76 6067.22 1209.69 5995.96 1099.24"/>
    <path d="M5623.45,1108.07l-58.62,240.58-516.64-67.7,26.13,806.44,573.65,35.63-24.52-1014.94Z"/>
    <path d="M5690.61,268.99c0-77.5,24.57-147.3,63.85-196.39-80.2,23.72-216.81,76.99-289.4,178.62-73.28,102.59-49.88,719.74-49.88,719.74l149.65,7.13s-14.19-473.99,14.25-520.21c31.34-50.93,101.16-38.81,157.67-17.57-28.81-46.53-46.13-106.22-46.13-171.32Z"/>
    <path d="M5929.86,0c-111.23,0-201.4,120.43-201.4,268.99s90.17,268.98,201.4,268.98,201.41-120.43,201.41-268.98S6041.09,0,5929.86,0ZM5917.69,519.05c-95.56,0-173.02-113.16-173.02-252.76s77.46-252.77,173.02-252.77,173.01,113.16,173.01,252.77-77.45,252.76-173.01,252.76Z"/>
    <path d="M6001.9,339.1c-25.18,0-46.34-16.61-52.72-39.19l52.72-14.18-54.01-8.31c4.11-25.51,26.69-45.06,54.01-45.06,17.72,0,33.43,8.25,43.44,20.98-11.05-39.6-45.34-68.49-85.94-68.49-49.53,0-89.69,42.97-89.69,95.96s40.16,95.95,89.69,95.95c34.7,0,64.79-21.11,79.7-51.97-9.77,8.84-22.82,14.3-37.2,14.3Z"/>
    <path d="M5917.07,31.86c44.25,0,70.59,31.61,70.59,31.61,0,0-25.72-16.86-68.48-16.86s-76.44,26.45-76.44,26.45c0,0,24.44-41.2,74.33-41.2Z"/>
    <path d="M5867.56,497.51s34.77,13.7,52.68,13.7,46.35-9.48,46.35-9.48c0,0-21.07,4.22-45.3,4.22s-53.73-8.43-53.73-8.43Z"/>
  </g>
</svg>